<svg width="18" height="18" viewBox="0 0 18 18" fill="none" xmlns="http://www.w3.org/2000/svg">
<path d="M6.75 3L4.5 1.5L2.25 3V14.25C2.25 15.4927 3.25736 16.5 4.5 16.5H15C16.2427 16.5 17.25 15.4927 17.25 14.25V12H15.75V3L13.5 1.5L11.25 3L9 1.5L6.75 3ZM14.25 12H5.25V14.25C5.25 14.6642 4.91421 15 4.5 15C4.08579 15 3.75 14.6642 3.75 14.25V3.80278L4.5 3.30277L6.75 4.80277L9 3.30277L11.25 4.80277L13.5 3.30277L14.25 3.80278V12ZM15 15H6.62197C6.70489 14.7654 6.75 14.5129 6.75 14.25V13.5H15.75V14.25C15.75 14.6642 15.4142 15 15 15Z" fill="#CB997E"/>
</svg>
