<svg width="19" height="18" viewBox="0 0 19 18" fill="none" xmlns="http://www.w3.org/2000/svg">
<path d="M9.98889 13.9684C9.68542 13.7985 9.31548 13.7985 9.01201 13.9684L6.10214 15.5972C5.35753 16.014 4.46657 15.3667 4.63287 14.5297L5.28277 11.259C5.35055 10.9178 5.23623 10.566 4.98089 10.3299L2.53263 8.06581C1.90613 7.48645 2.24645 6.43906 3.09384 6.33858L6.40534 5.94595C6.7507 5.905 7.04998 5.68756 7.19565 5.37176L8.59238 2.34367C8.9498 1.56879 10.0511 1.5688 10.4085 2.34367L11.8052 5.37175C11.9509 5.68756 12.2502 5.905 12.5955 5.94595L15.907 6.33859C16.7544 6.43906 17.0947 7.48644 16.4682 8.06581L14.02 10.3299C13.7647 10.566 13.6503 10.9178 13.7181 11.2589L14.368 14.5297C14.5343 15.3667 13.6433 16.014 12.8987 15.5972L9.98889 13.9684Z" fill="white"/>
</svg>
