<svg width="1024" height="394" viewBox="0 0 1024 394" fill="none" xmlns="http://www.w3.org/2000/svg">
<path d="M1018.82 108.868H5.18213V366.005H1018.82V108.868Z" stroke="white" stroke-opacity="0.9" stroke-width="5"/>
<path d="M998.089 129.605H25.9111V345.268H998.089V129.605Z" stroke="white" stroke-opacity="0.9" stroke-width="5" stroke-linejoin="round" stroke-dasharray="16 16"/>
<path d="M765.374 338.805H761.962V314.543C761.962 302.105 751.885 292.025 739.45 292.025H642.691L639.577 287.821C639.233 287.361 605.443 241.082 621.253 200.636C628.037 183.28 631.022 166.02 630.121 149.341C630.092 148.796 630.007 148.27 629.963 147.728H639.442V158.839C639.442 164.455 643.565 169.071 648.938 169.921V195.683C648.938 203.262 655.078 209.405 662.654 209.405C670.231 209.405 676.371 203.262 676.371 195.683V142.301H678.012C681.118 142.301 683.64 144.825 683.64 147.93V209.332C683.64 218.645 691.212 226.222 700.524 226.222H701.931V228.24C701.931 229.795 703.191 231.056 704.746 231.056C705.795 231.056 706.67 230.459 707.155 229.609H709.219C710.459 229.609 711.659 229.146 712.58 228.313C713.854 227.158 715.631 226.739 717.289 227.203C717.289 227.203 740.845 231.127 744.263 231.649C751.06 232.688 757.206 227.473 757.206 220.596C757.206 213.718 751.06 208.503 744.263 209.544C740.849 210.066 717.289 213.988 717.289 213.988C715.635 214.45 713.854 214.033 712.58 212.878C711.659 212.045 710.459 211.582 709.219 211.582H707.155C706.67 210.732 705.791 210.137 704.746 210.137C703.191 210.137 701.931 211.398 701.931 212.953V214.966H700.524C697.421 214.966 694.896 212.439 694.896 209.338V147.936C694.896 138.622 687.324 131.046 678.012 131.046H676.371V77.6634C676.371 70.0841 670.231 63.9418 662.654 63.9418C655.078 63.9418 648.938 70.0841 648.938 77.6634V103.426C643.565 104.276 639.442 108.892 639.442 114.508V125.619H623.979C615.177 107.461 597.821 94.4451 576.91 92.1163C572.401 91.616 567.994 91.4588 563.82 91.5069V82.8403H572.377C575.16 82.8403 577.418 80.5823 577.418 77.7949C577.418 75.4213 575.772 73.4455 573.566 72.9099V48.3181C575.772 47.7824 577.418 45.8033 577.418 43.4331C577.418 40.649 575.16 38.3909 572.377 38.3909H563.82V33.0537H561.005V20.7368H558.19V33.0537H555.375V38.3909H546.816C544.034 38.3909 541.777 40.649 541.777 43.4331C541.777 45.8066 543.421 47.7824 545.626 48.3181V72.9099C543.421 73.4488 541.777 75.4246 541.777 77.7949C541.777 80.579 544.034 82.8403 546.816 82.8403H555.375V91.8758C544.389 92.7322 536.543 94.7178 536.043 94.8459C535.222 95.0546 453.072 115.823 400.778 106.678C366.505 101.219 355.881 84.5306 352.907 77.6088C350.488 71.9861 344.928 68.3521 338.739 68.3521H333.428V47.8272C333.428 45.4954 331.54 43.6062 329.21 43.6062C326.878 43.6062 324.989 45.4954 324.989 47.8272V68.3521H317.226C313.037 68.3521 309.627 71.7617 309.627 75.9538V126.53H289.601C289.923 125.741 290.109 124.881 290.109 123.976C290.109 120.237 287.076 117.202 283.337 117.202C279.6 117.202 276.565 120.237 276.565 123.976C276.565 127.717 279.6 130.751 283.337 130.751H309.627V218.977C309.627 223.168 313.037 226.577 317.226 226.577H329.357V248.452C329.357 250.01 330.617 251.268 332.172 251.268H332.883L334.048 280.358L335.211 251.268H335.922C337.478 251.268 338.739 250.01 338.739 248.452V242.824H342.142C342.19 243.243 342.518 243.587 342.955 243.587H344.792C344.968 244.784 345.807 246.051 347.115 246.683C349.13 247.658 351.402 246.855 351.402 244.508C351.402 243.54 350.954 242.636 350.276 241.935C350.005 241.653 350.005 241.178 350.276 240.896C350.954 240.193 351.402 239.293 351.402 238.324C351.402 235.979 349.13 235.176 347.115 236.153C345.807 236.784 344.97 238.051 344.792 239.247H342.955C342.518 239.247 342.19 239.587 342.142 240.01H338.739V226.581H348.322C356.856 226.581 363.798 219.634 363.798 211.099V197.088C363.698 183.761 369.496 173.718 381.032 167.233C390.291 162.024 399.92 161.004 399.862 161.004C468.229 156.94 505.802 167.072 525.281 176.284C538.949 182.751 546.938 197.73 544.714 212.712C539.785 245.854 511.84 287.678 511.558 288.097L508.911 292.031H284.545C272.112 292.031 262.034 302.111 262.034 314.549V338.811H258.624C255.455 338.811 252.891 341.38 252.891 344.547V365.931C252.891 369.099 255.459 371.666 258.624 371.666H262.034H761.966H765.376C768.545 371.666 771.109 369.097 771.109 365.931V344.547C771.105 341.374 768.541 338.805 765.374 338.805ZM327.632 47.9813C327.632 47.1089 328.339 46.4001 329.212 46.4001C330.084 46.4001 330.793 47.1089 330.793 47.9813V53.7868C330.793 54.6592 330.084 55.3682 329.212 55.3682C328.339 55.3682 327.632 54.6592 327.632 53.7868V47.9813ZM283.341 127.919C281.163 127.919 279.401 126.154 279.401 123.976C279.401 121.799 281.163 120.035 283.341 120.035C285.514 120.035 287.282 121.799 287.282 123.976C287.282 126.151 285.518 127.919 283.341 127.919Z" fill="white"/>
<mask id="mask0_1976_201" style="mask-type:luminance" maskUnits="userSpaceOnUse" x="232" y="0" width="560" height="394">
<path d="M791.838 0H232.162V394H791.838V0Z" fill="white"/>
<path d="M765.374 338.805H761.962V314.543C761.962 302.105 751.885 292.025 739.45 292.025H642.691L639.577 287.821C639.233 287.361 605.443 241.082 621.253 200.636C628.037 183.28 631.022 166.02 630.121 149.341C630.092 148.796 630.007 148.27 629.963 147.728H639.442V158.839C639.442 164.455 643.565 169.071 648.938 169.921V195.683C648.938 203.262 655.078 209.405 662.654 209.405C670.231 209.405 676.371 203.262 676.371 195.683V142.301H678.012C681.118 142.301 683.64 144.825 683.64 147.93V209.332C683.64 218.645 691.212 226.222 700.524 226.222H701.931V228.24C701.931 229.795 703.191 231.056 704.746 231.056C705.795 231.056 706.67 230.459 707.155 229.609H709.219C710.459 229.609 711.659 229.146 712.58 228.313C713.854 227.158 715.631 226.739 717.289 227.203C717.289 227.203 740.845 231.127 744.263 231.649C751.06 232.688 757.206 227.473 757.206 220.596C757.206 213.718 751.06 208.503 744.263 209.544C740.849 210.066 717.289 213.988 717.289 213.988C715.635 214.45 713.854 214.033 712.58 212.878C711.659 212.045 710.459 211.582 709.219 211.582H707.155C706.67 210.732 705.791 210.137 704.746 210.137C703.191 210.137 701.931 211.398 701.931 212.953V214.966H700.524C697.421 214.966 694.896 212.439 694.896 209.338V147.936C694.896 138.622 687.324 131.046 678.012 131.046H676.371V77.6634C676.371 70.0841 670.231 63.9418 662.654 63.9418C655.078 63.9418 648.938 70.0841 648.938 77.6634V103.426C643.565 104.276 639.442 108.892 639.442 114.508V125.619H623.979C615.177 107.461 597.821 94.4451 576.91 92.1163C572.401 91.616 567.994 91.4588 563.82 91.5069V82.8403H572.377C575.16 82.8403 577.418 80.5823 577.418 77.7949C577.418 75.4213 575.772 73.4455 573.566 72.9099V48.3181C575.772 47.7824 577.418 45.8033 577.418 43.4331C577.418 40.649 575.16 38.3909 572.377 38.3909H563.82V33.0537H561.005V20.7368H558.19V33.0537H555.375V38.3909H546.816C544.034 38.3909 541.777 40.649 541.777 43.4331C541.777 45.8066 543.421 47.7824 545.626 48.3181V72.9099C543.421 73.4488 541.777 75.4246 541.777 77.7949C541.777 80.579 544.034 82.8403 546.816 82.8403H555.375V91.8758C544.389 92.7322 536.543 94.7178 536.043 94.8459C535.222 95.0546 453.072 115.823 400.778 106.678C366.505 101.219 355.881 84.5306 352.907 77.6088C350.488 71.9861 344.928 68.3521 338.739 68.3521H333.428V47.8272C333.428 45.4954 331.54 43.6062 329.21 43.6062C326.878 43.6062 324.989 45.4954 324.989 47.8272V68.3521H317.226C313.037 68.3521 309.627 71.7617 309.627 75.9538V126.53H289.601C289.923 125.741 290.109 124.881 290.109 123.976C290.109 120.237 287.076 117.202 283.337 117.202C279.6 117.202 276.565 120.237 276.565 123.976C276.565 127.717 279.6 130.751 283.337 130.751H309.627V218.977C309.627 223.168 313.037 226.577 317.226 226.577H329.357V248.452C329.357 250.01 330.617 251.268 332.172 251.268H332.883L334.048 280.358L335.211 251.268H335.922C337.478 251.268 338.739 250.01 338.739 248.452V242.824H342.142C342.19 243.243 342.518 243.587 342.955 243.587H344.792C344.968 244.784 345.807 246.051 347.115 246.683C349.13 247.658 351.402 246.855 351.402 244.508C351.402 243.54 350.954 242.636 350.276 241.935C350.005 241.653 350.005 241.178 350.276 240.896C350.954 240.193 351.402 239.293 351.402 238.324C351.402 235.979 349.13 235.176 347.115 236.153C345.807 236.784 344.97 238.051 344.792 239.247H342.955C342.518 239.247 342.19 239.587 342.142 240.01H338.739V226.581H348.322C356.856 226.581 363.798 219.634 363.798 211.099V197.088C363.698 183.761 369.496 173.718 381.032 167.233C390.291 162.024 399.92 161.004 399.862 161.004C468.229 156.94 505.802 167.072 525.281 176.284C538.949 182.751 546.938 197.73 544.714 212.712C539.785 245.854 511.84 287.678 511.558 288.097L508.911 292.031H284.545C272.112 292.031 262.034 302.111 262.034 314.549V338.811H258.624C255.455 338.811 252.891 341.38 252.891 344.547V365.931C252.891 369.099 255.459 371.666 258.624 371.666H262.034H761.966H765.376C768.545 371.666 771.109 369.097 771.109 365.931V344.547C771.105 341.374 768.541 338.805 765.374 338.805ZM327.632 47.9813C327.632 47.1089 328.339 46.4001 329.212 46.4001C330.084 46.4001 330.793 47.1089 330.793 47.9813V53.7868C330.793 54.6592 330.084 55.3682 329.212 55.3682C328.339 55.3682 327.632 54.6592 327.632 53.7868V47.9813ZM283.341 127.919C281.163 127.919 279.401 126.154 279.401 123.976C279.401 121.799 281.163 120.035 283.341 120.035C285.514 120.035 287.282 121.799 287.282 123.976C287.282 126.151 285.518 127.919 283.341 127.919Z" fill="black"/>
</mask>
<g mask="url(#mask0_1976_201)">
<path d="M765.374 338.805H761.962V314.543C761.962 302.105 751.885 292.024 739.45 292.024H642.691L639.577 287.821C639.233 287.361 605.443 241.082 621.253 200.636C628.037 183.28 631.022 166.02 630.121 149.341C630.092 148.796 630.007 148.27 629.963 147.728H639.442V158.839C639.442 164.455 643.565 169.071 648.938 169.921V195.683C648.938 203.262 655.078 209.405 662.654 209.405C670.231 209.405 676.371 203.262 676.371 195.683V142.301H678.012C681.118 142.301 683.64 144.825 683.64 147.93V209.332C683.64 218.645 691.212 226.222 700.524 226.222H701.931V228.24C701.931 229.795 703.191 231.056 704.746 231.056C705.795 231.056 706.67 230.459 707.155 229.609H709.219C710.459 229.609 711.659 229.146 712.58 228.313C713.854 227.158 715.631 226.739 717.289 227.203C717.289 227.203 740.845 231.127 744.263 231.649C751.06 232.688 757.206 227.473 757.206 220.596C757.206 213.718 751.06 208.503 744.263 209.544C740.849 210.066 717.289 213.988 717.289 213.988C715.635 214.45 713.854 214.033 712.58 212.878C711.659 212.045 710.459 211.582 709.219 211.582H707.155C706.67 210.732 705.791 210.137 704.746 210.137C703.191 210.137 701.931 211.398 701.931 212.953V214.966H700.524C697.421 214.966 694.896 212.439 694.896 209.338V147.936C694.896 138.622 687.324 131.046 678.012 131.046H676.371V77.6634C676.371 70.0841 670.231 63.9418 662.654 63.9418C655.078 63.9418 648.938 70.0841 648.938 77.6634V103.426C643.565 104.276 639.442 108.892 639.442 114.508V125.619H623.979C615.177 107.461 597.821 94.4451 576.91 92.1163C572.401 91.616 567.994 91.4588 563.82 91.5069V82.8403H572.377C575.16 82.8403 577.418 80.5823 577.418 77.7949C577.418 75.4213 575.772 73.4455 573.566 72.9099V48.3181C575.772 47.7824 577.418 45.8033 577.418 43.4331C577.418 40.649 575.16 38.3909 572.377 38.3909H563.82V33.0537H561.005V20.7368H558.19V33.0537H555.375V38.3909H546.816C544.034 38.3909 541.777 40.649 541.777 43.4331C541.777 45.8066 543.421 47.7824 545.626 48.3181V72.9099C543.421 73.4488 541.777 75.4246 541.777 77.7949C541.777 80.579 544.034 82.8403 546.816 82.8403H555.375V91.8758C544.389 92.7322 536.543 94.7178 536.043 94.8459C535.222 95.0545 453.072 115.823 400.778 106.678C366.505 101.219 355.881 84.5306 352.907 77.6088C350.488 71.9861 344.928 68.3521 338.739 68.3521H333.428V47.8272C333.428 45.4954 331.54 43.6062 329.21 43.6062C326.878 43.6062 324.989 45.4954 324.989 47.8272V68.3521H317.226C313.037 68.3521 309.627 71.7617 309.627 75.9538V126.53H289.601C289.923 125.741 290.109 124.881 290.109 123.976C290.109 120.237 287.076 117.202 283.337 117.202C279.6 117.202 276.565 120.237 276.565 123.976C276.565 127.717 279.6 130.751 283.337 130.751H309.627V218.977C309.627 223.168 313.037 226.577 317.226 226.577H329.357V248.452C329.357 250.01 330.617 251.268 332.172 251.268H332.883L334.048 280.358L335.211 251.268H335.922C337.478 251.268 338.739 250.01 338.739 248.452V242.824H342.142C342.19 243.243 342.518 243.587 342.955 243.587H344.792C344.968 244.784 345.807 246.051 347.115 246.683C349.13 247.658 351.402 246.855 351.402 244.508C351.402 243.54 350.954 242.636 350.276 241.935C350.005 241.653 350.005 241.178 350.276 240.896C350.954 240.193 351.402 239.293 351.402 238.324C351.402 235.979 349.13 235.176 347.115 236.153C345.807 236.784 344.97 238.051 344.792 239.247H342.955C342.518 239.247 342.19 239.587 342.142 240.01H338.739V226.581H348.322C356.856 226.581 363.798 219.634 363.798 211.099V197.088C363.698 183.761 369.496 173.718 381.032 167.233C390.291 162.024 399.92 161.004 399.862 161.004C468.229 156.94 505.802 167.072 525.281 176.284C538.949 182.751 546.938 197.73 544.714 212.712C539.785 245.854 511.84 287.678 511.558 288.097L508.911 292.031H284.545C272.112 292.031 262.034 302.111 262.034 314.549V338.811H258.624C255.455 338.811 252.891 341.38 252.891 344.547V365.931C252.891 369.099 255.459 371.666 258.624 371.666H262.034H761.966H765.376C768.545 371.666 771.109 369.097 771.109 365.931V344.547C771.105 341.374 768.541 338.805 765.374 338.805ZM327.632 47.9813C327.632 47.1089 328.339 46.4001 329.212 46.4001C330.084 46.4001 330.793 47.1089 330.793 47.9813V53.7868C330.793 54.6592 330.084 55.3682 329.212 55.3682C328.339 55.3682 327.632 54.6592 327.632 53.7868V47.9813ZM283.341 127.919C281.163 127.919 279.401 126.154 279.401 123.976C279.401 121.799 281.163 120.035 283.341 120.035C285.514 120.035 287.282 121.799 287.282 123.976C287.282 126.151 285.518 127.919 283.341 127.919Z" stroke="#6B705C" stroke-width="20"/>
</g>
<path d="M547.297 50.1558C547.297 50.1558 546.926 50.4671 546.2 51.0701C545.454 51.657 544.451 52.6065 542.952 53.697C540.044 55.9808 535.597 59.06 529.468 62.1712C523.324 65.2215 515.435 68.1564 506.032 69.8819C496.642 71.6365 485.805 72.1112 474.124 71.2354C462.431 70.3856 449.911 68.1691 436.864 65.1541C423.809 62.1519 410.224 58.2965 396.157 54.4506C382.089 50.6467 367.51 46.7046 352.38 44.5813C344.827 43.5356 337.115 43.0321 329.442 43.6223C321.795 44.2541 314.148 46.1401 307.455 49.9441C304.144 51.8301 301.01 54.1974 298.11 56.7217C295.194 59.2203 292.468 61.9787 290.103 65.0001C285.25 70.9565 281.894 78.0257 280.182 85.4062C278.528 92.8156 278.451 100.472 279.473 107.856C280.458 115.255 282.387 122.427 284.763 129.294C289.537 143.048 295.911 155.673 302.206 167.451C308.539 179.222 314.905 190.15 320.613 200.341C326.33 210.525 331.409 219.968 335.393 228.601C339.375 237.229 342.316 245.031 343.925 251.693C345.571 258.348 345.859 263.793 345.629 267.447C345.451 269.276 345.301 270.668 345.092 271.595C344.922 272.522 344.835 273.003 344.835 273.003C344.835 273.003 344.891 272.519 344.992 271.582C345.131 270.651 345.183 269.251 345.227 267.439C345.26 263.81 344.771 258.47 343.087 251.907C341.433 245.336 338.552 237.58 334.56 228.997C330.582 220.404 325.501 210.987 319.782 200.815C314.069 190.638 307.685 179.713 301.329 167.929C295.011 156.138 288.602 143.484 283.778 129.641C281.378 122.729 279.419 115.496 278.416 108.003C277.377 100.526 277.433 92.7354 279.116 85.172C280.856 77.6344 284.286 70.3921 289.23 64.3137C291.645 61.2282 294.402 58.4313 297.383 55.8717C300.339 53.296 303.45 50.9384 306.893 48.9626C313.76 45.0496 321.581 43.1186 329.346 42.4707C337.14 41.8646 344.932 42.3681 352.54 43.4105C367.784 45.534 382.399 49.4694 396.483 53.2638C410.564 57.0968 424.133 60.9332 437.152 63.9128C450.162 66.9054 462.62 69.0929 474.224 69.9236C485.817 70.7801 496.53 70.2925 505.789 68.5542C515.061 66.8444 522.814 63.945 528.852 60.9396C534.866 57.8795 539.262 54.826 542.083 52.6065C543.536 51.5512 544.571 50.5728 545.307 49.9955C546.03 49.3925 546.403 49.0814 546.403 49.0814L547.297 50.1558Z" fill="white"/>
<path d="M559.598 49.7551C562.784 49.7325 565.972 49.707 568.364 49.6908C570.756 49.646 572.348 49.6139 572.348 49.6139C572.348 49.6139 570.756 49.585 568.364 49.5369C565.972 49.521 562.784 49.4951 559.598 49.4727C556.409 49.4951 553.223 49.521 550.831 49.5369C548.439 49.5817 546.845 49.6139 546.845 49.6139C546.845 49.6139 548.439 49.6427 550.831 49.6908C553.223 49.707 556.409 49.7294 559.598 49.7551Z" fill="#6B705C"/>
<path d="M559.598 51.6731C556.409 51.6955 553.223 51.7212 550.831 51.7372C548.439 51.7822 546.845 51.8141 546.845 51.8141C546.845 51.8141 548.439 51.8429 550.831 51.891C553.223 51.9072 556.409 51.9329 559.598 51.9553C562.784 51.9329 565.97 51.9072 568.362 51.891C570.754 51.8462 572.348 51.8141 572.348 51.8141C572.348 51.8141 570.754 51.7853 568.362 51.7372C565.974 51.7212 562.788 51.6955 559.598 51.6731Z" fill="#6B705C"/>
<path d="M559.598 53.8735C556.409 53.8959 553.223 53.9216 550.831 53.9376C548.439 53.9826 546.845 54.0114 546.845 54.0114C546.845 54.0114 548.439 54.0405 550.831 54.0886C553.223 54.1079 556.409 54.1303 559.598 54.1527C562.784 54.1303 565.97 54.1045 568.362 54.0886C570.754 54.0436 572.348 54.0114 572.348 54.0114C572.348 54.0114 570.754 53.9826 568.362 53.9345C565.974 53.9185 562.788 53.8959 559.598 53.8735Z" fill="#6B705C"/>
<path d="M559.598 56.0706C556.409 56.093 553.223 56.1187 550.831 56.1346C548.439 56.1796 546.845 56.2116 546.845 56.2116C546.845 56.2116 548.439 56.2404 550.831 56.2885C553.223 56.3078 556.409 56.3304 559.598 56.3528C562.784 56.3304 565.97 56.3047 568.362 56.2885C570.754 56.2437 572.348 56.2116 572.348 56.2116C572.348 56.2116 570.754 56.1827 568.362 56.1346C565.974 56.1187 562.788 56.0961 559.598 56.0706Z" fill="#6B705C"/>
<path d="M559.598 58.2711C556.409 58.2937 553.223 58.3192 550.831 58.3354C548.439 58.3802 546.845 58.4092 546.845 58.4092C546.845 58.4092 548.439 58.4381 550.831 58.4862C553.223 58.5021 556.409 58.5278 559.598 58.5502C562.784 58.5278 565.97 58.5021 568.362 58.4862C570.754 58.4412 572.348 58.4092 572.348 58.4092C572.348 58.4092 570.754 58.3804 568.362 58.3321C565.974 58.3161 562.788 58.2937 559.598 58.2711Z" fill="#6B705C"/>
<path d="M559.598 60.468C556.409 60.4904 553.223 60.5161 550.831 60.5321C548.439 60.5769 546.845 60.609 546.845 60.609C546.845 60.609 548.439 60.6381 550.831 60.6829C553.223 60.7021 556.409 60.7245 559.598 60.7469C562.784 60.7245 565.97 60.699 568.362 60.6829C570.754 60.6381 572.348 60.6059 572.348 60.6059C572.348 60.6059 570.754 60.5738 568.362 60.529C565.974 60.5161 562.788 60.4935 559.598 60.468Z" fill="#6B705C"/>
<path d="M559.598 62.6685C556.409 62.6911 553.223 62.7166 550.831 62.7325C548.439 62.7775 546.845 62.8097 546.845 62.8097C546.845 62.8097 548.439 62.8385 550.831 62.8866C553.223 62.9026 556.409 62.9283 559.598 62.9509C562.784 62.9283 565.97 62.9026 568.362 62.8866C570.754 62.8416 572.348 62.8097 572.348 62.8097C572.348 62.8097 570.754 62.7806 568.362 62.7325C565.974 62.7166 562.788 62.6942 559.598 62.6685Z" fill="#6B705C"/>
<path d="M559.598 64.869C556.409 64.8914 553.223 64.9171 550.831 64.9331C548.439 64.9781 546.845 65.01 546.845 65.01C546.845 65.01 548.439 65.0391 550.831 65.0872C553.223 65.1031 556.409 65.1286 559.598 65.1512C562.784 65.1286 565.97 65.1031 568.362 65.0872C570.754 65.0422 572.348 65.01 572.348 65.01C572.348 65.01 570.754 64.9812 568.362 64.9331C565.974 64.9138 562.788 64.8914 559.598 64.869Z" fill="#6B705C"/>
<path d="M559.598 67.0658C556.409 67.0884 553.223 67.1139 550.831 67.1299C548.439 67.1749 546.845 67.207 546.845 67.207C546.845 67.207 548.439 67.2358 550.831 67.284C553.223 67.2999 556.409 67.3256 559.598 67.348C562.784 67.3256 565.97 67.2999 568.362 67.284C570.754 67.239 572.348 67.207 572.348 67.207C572.348 67.207 570.754 67.1782 568.362 67.1299C565.974 67.1139 562.788 67.0915 559.598 67.0658Z" fill="#6B705C"/>
<path d="M559.598 69.2662C556.409 69.2886 553.223 69.3143 550.831 69.3303C548.439 69.3751 546.845 69.4041 546.845 69.4041C546.845 69.4041 548.439 69.433 550.831 69.4811C553.223 69.5004 556.409 69.5227 559.598 69.5451C562.784 69.5227 565.97 69.497 568.362 69.4811C570.754 69.4361 572.348 69.4041 572.348 69.4041C572.348 69.4041 570.754 69.3751 568.362 69.327C565.974 69.3141 562.788 69.2886 559.598 69.2662Z" fill="#6B705C"/>
<path d="M559.598 71.4667C556.409 71.4893 553.223 71.5148 550.831 71.5307C548.439 71.5757 546.845 71.6077 546.845 71.6077C546.845 71.6077 548.439 71.6367 550.831 71.6815C553.223 71.7008 556.409 71.7232 559.598 71.7458C562.784 71.7232 565.97 71.6977 568.362 71.6815C570.754 71.6367 572.348 71.6046 572.348 71.6046C572.348 71.6046 570.754 71.5758 568.362 71.5276C565.974 71.5115 562.788 71.4893 559.598 71.4667Z" fill="#6B705C"/>
<path d="M648.938 169.924V146.467L646.517 169.279C647.284 169.587 648.099 169.789 648.938 169.924Z" fill="#6B705C"/>
<path d="M629.98 147.728H630.173C630.189 146.852 630.189 145.672 630.144 144.251C630.054 141.185 629.638 137.073 628.74 133.002C628.178 130.417 627.424 127.89 626.63 125.619H624.033C627.3 132.364 629.352 139.834 629.98 147.728Z" fill="#6B705C"/>
<path d="M512.727 286.295C512.016 287.404 511.589 288.043 511.554 288.091L508.909 292.025H570.619L512.727 286.295Z" fill="#6B705C"/>
<path d="M610.449 123.787C618.166 135.029 620.073 148.331 619.101 161.69C618.585 168.808 617.26 175.825 615.453 182.722C613.763 189.165 611.121 195.273 609.265 201.655C601.9 226.94 609.473 253.549 621.504 276.065C616.039 263.457 611.519 250.346 609.835 236.643C608.117 222.649 609.676 209.146 614.595 195.965C619.657 182.394 622.724 168.272 622.407 153.723C622.119 140.566 617.839 127.957 608.728 118.267C600.352 109.353 589.527 104.703 577.542 103.307C590.775 105.95 602.663 112.445 610.449 123.787Z" fill="#6B705C"/>
<path d="M358.468 99.6121C371.872 110.736 389.439 115.294 406.418 117.212C421.388 118.905 436.305 117.911 451.252 116.583C443.719 116.407 436.172 116.512 428.643 116.208C398.307 114.979 359.295 108.667 343.473 78.9945C346.475 87.18 351.787 94.0633 358.468 99.6121Z" fill="#6B705C"/>
<path d="M319.366 190.779C320.404 153.717 320.369 116.551 318.31 79.5239C317.84 87.9949 317.496 96.4626 317.26 104.94C316.229 142.003 316.24 179.168 318.31 216.196C318.783 207.727 319.129 199.257 319.366 190.779Z" fill="#6B705C"/>
<path d="M671.147 173.583C672.216 140.264 672.098 106.791 670.042 73.5127C669.565 81.2685 669.221 89.0274 668.979 96.7958C667.942 130.061 667.982 163.441 670.042 196.668C670.521 188.976 670.898 181.285 671.147 173.583Z" fill="#6B705C"/>
<path d="M674.37 338.013C637.548 337.743 600.721 337.59 563.896 337.513C524.562 337.428 485.231 337.461 445.898 337.544C408.991 337.625 372.077 337.774 335.169 338.166C315.168 338.378 295.165 338.593 275.162 338.805C275.508 338.809 275.854 338.811 276.204 338.815C300.677 339.074 325.149 339.416 349.623 339.593C386.446 339.862 423.275 340.018 460.097 340.097C499.432 340.182 538.763 340.153 578.098 340.068C615.003 339.989 651.917 339.842 688.824 339.446C708.828 339.232 728.829 339.02 748.832 338.805C748.486 338.801 748.14 338.799 747.792 338.794C723.321 338.446 698.841 338.193 674.37 338.013Z" fill="#6B705C"/>
<path d="M581.829 125.984C590.259 128.97 600.746 134.92 602.066 144.745C603.368 154.409 594.666 161.69 586.907 165.529C578.502 169.69 569.415 171.329 560.153 172.095C571.732 172.368 583.622 170.703 593.597 164.388C602.071 159.021 608.27 149.29 603.801 139.26C599.473 129.548 588.682 124.319 578.956 121.664C560.3 116.567 535.032 119.187 521.585 134.452C529.209 127.463 539.256 124.056 549.395 122.77C560.161 121.401 571.577 122.35 581.829 125.984Z" fill="#6B705C"/>
<path d="M691.016 147.266C691.461 156.122 690.854 165.158 690.825 174.03C690.798 183.03 690.9 192.033 691.024 201.034C691.08 204.898 690.342 209.774 692.143 213.322C693.733 216.455 697.029 218.392 700.528 218.34C697.29 218.203 694.278 216.362 692.827 213.43C691.169 210.081 691.955 205.617 692.006 202.002C692.131 193.034 692.22 184.066 692.224 175.098C692.226 166.152 692.429 157.123 692.027 148.184C691.681 140.444 685.879 134.404 678.017 134.42C684.988 134.802 690.655 140.187 691.016 147.266Z" fill="#6B705C"/>
<path d="M748.654 211.827C746.51 211.113 744.68 211.483 742.497 211.864C734.276 213.305 725.995 214.871 717.998 217.293C727.421 216.982 736.633 214.784 745.992 214.199C749.817 214.268 752.762 217.026 753.828 220.596C754.837 216.824 752.215 213.011 748.654 211.827Z" fill="#6B705C"/>
<path d="M173.923 273.527C194.494 252.95 194.494 219.587 173.923 199.008C153.353 178.43 120.002 178.429 99.432 199.008C78.8619 219.587 78.8619 252.95 99.432 273.527C120.002 294.106 153.353 294.106 173.923 273.527Z" fill="white" fill-opacity="0.9"/>
<path d="M136.682 226.291C140.313 226.291 143.257 223.346 143.257 219.713C143.257 216.08 140.313 213.135 136.682 213.135C133.05 213.135 130.106 216.08 130.106 219.713C130.106 223.344 133.05 226.291 136.682 226.291Z" fill="#6B705C"/>
<path d="M136.682 246.248C133.05 246.248 130.106 249.193 130.106 252.826C130.106 256.459 133.05 259.403 136.682 259.403C140.313 259.403 143.257 256.459 143.257 252.826C143.257 249.193 140.313 246.248 136.682 246.248Z" fill="#6B705C"/>
<path d="M153.233 229.692C149.602 229.692 146.658 232.636 146.658 236.269C146.658 239.902 149.602 242.847 153.233 242.847C156.865 242.847 159.809 239.902 159.809 236.269C159.809 232.636 156.865 229.692 153.233 229.692Z" fill="#6B705C"/>
<path d="M120.132 229.692C116.5 229.692 113.557 232.636 113.557 236.269C113.557 239.902 116.5 242.847 120.132 242.847C123.763 242.847 126.707 239.902 126.707 236.269C126.707 232.636 123.763 229.692 120.132 229.692Z" fill="#6B705C"/>
<path d="M105.664 263.136C114.214 271.039 125.283 275.87 137.012 275.767C148.522 275.665 159.293 270.885 167.703 263.136C160.479 273.001 149.014 278.898 136.728 278.879C124.39 278.861 112.937 273.052 105.664 263.136Z" fill="#6B705C"/>
<path d="M179.86 225.497C174.408 211.843 164.255 200.829 149.921 196.424C134.885 191.806 118.07 195.543 106.403 206.11C100.467 211.487 96.4515 218.118 93.5039 225.495C97.6828 210.749 108.167 198.931 122.951 194.193C138.568 189.189 156.206 193.189 167.939 204.731C173.855 210.556 177.611 217.571 179.86 225.497Z" fill="#6B705C"/>
<path d="M924.303 273.527C944.874 252.95 944.874 219.587 924.303 199.008C903.734 178.43 870.383 178.429 849.812 199.008C829.243 219.587 829.243 252.95 849.812 273.527C870.383 294.106 903.734 294.106 924.303 273.527Z" fill="white" fill-opacity="0.9"/>
<path d="M887.061 226.291C890.693 226.291 893.637 223.346 893.637 219.713C893.637 216.08 890.693 213.135 887.061 213.135C883.43 213.135 880.486 216.08 880.486 219.713C880.486 223.344 883.43 226.291 887.061 226.291Z" fill="#6B705C"/>
<path d="M887.061 246.248C883.43 246.248 880.486 249.193 880.486 252.826C880.486 256.459 883.43 259.403 887.061 259.403C890.693 259.403 893.637 256.459 893.637 252.826C893.637 249.193 890.693 246.248 887.061 246.248Z" fill="#6B705C"/>
<path d="M903.614 229.692C899.982 229.692 897.039 232.636 897.039 236.269C897.039 239.902 899.982 242.847 903.614 242.847C907.245 242.847 910.189 239.902 910.189 236.269C910.189 232.636 907.245 229.692 903.614 229.692Z" fill="#6B705C"/>
<path d="M870.512 229.692C866.88 229.692 863.937 232.636 863.937 236.269C863.937 239.902 866.88 242.847 870.512 242.847C874.144 242.847 877.087 239.902 877.087 236.269C877.087 232.636 874.144 229.692 870.512 229.692Z" fill="#6B705C"/>
<path d="M856.043 263.136C864.594 271.039 875.663 275.87 887.392 275.767C898.902 275.665 909.673 270.885 918.083 263.136C910.859 273.001 899.393 278.898 887.108 278.879C874.77 278.861 863.317 273.052 856.043 263.136Z" fill="#6B705C"/>
<path d="M930.24 225.497C924.788 211.843 914.635 200.829 900.301 196.424C885.265 191.806 868.449 195.543 856.783 206.11C850.847 211.487 846.831 218.118 843.884 225.495C848.063 210.749 858.547 198.931 873.331 194.193C888.948 189.189 906.586 193.189 918.319 204.731C924.235 210.556 927.991 217.571 930.24 225.497Z" fill="#6B705C"/>
</svg>
